<svg width="168" height="41" viewBox="0 0 168 41" fill="currentColor" stroke="#333" xmlns="http://www.w3.org/2000/svg">
<g filter="url(#filter0_d_2_7)">
<path d="M15.9 25.34C13.4267 25.34 11.3033 24.815 9.53 23.765C7.75667 22.6917 6.39167 21.21 5.435 19.32C4.47833 17.4067 4 15.2017 4 12.705C4 10.2083 4.47833 8.00333 5.435 6.09C6.39167 4.17667 7.75667 2.68333 9.53 1.61C11.3033 0.536666 13.4267 -9.53674e-07 15.9 -9.53674e-07C18.84 -9.53674e-07 21.2433 0.734998 23.11 2.205C25 3.65167 26.1783 5.69333 26.645 8.33H21.71C21.4067 7 20.7533 5.96167 19.75 5.215C18.77 4.445 17.4633 4.06 15.83 4.06C13.5667 4.06 11.7933 4.83 10.51 6.37C9.22667 7.91 8.585 10.0217 8.585 12.705C8.585 15.3883 9.22667 17.5 10.51 19.04C11.7933 20.5567 13.5667 21.315 15.83 21.315C17.4633 21.315 18.77 20.965 19.75 20.265C20.7533 19.5417 21.4067 18.55 21.71 17.29H26.645C26.1783 19.81 25 21.7817 23.11 23.205C21.2433 24.6283 18.84 25.34 15.9 25.34ZM35.7907 25.34C34.2973 25.34 33.0723 25.1067 32.1157 24.64C31.159 24.15 30.4473 23.5083 29.9807 22.715C29.514 21.9217 29.2807 21.0467 29.2807 20.09C29.2807 18.48 29.9107 17.1733 31.1707 16.17C32.4307 15.1667 34.3207 14.665 36.8407 14.665H41.2507V14.245C41.2507 13.055 40.9123 12.18 40.2357 11.62C39.559 11.06 38.719 10.78 37.7157 10.78C36.8057 10.78 36.0123 11.0017 35.3357 11.445C34.659 11.865 34.239 12.495 34.0757 13.335H29.7007C29.8173 12.075 30.2373 10.9783 30.9607 10.045C31.7073 9.11167 32.664 8.4 33.8307 7.91C34.9973 7.39667 36.304 7.14 37.7507 7.14C40.224 7.14 42.1723 7.75833 43.5957 8.995C45.019 10.2317 45.7307 11.9817 45.7307 14.245V24.92H41.9157L41.4957 22.12C40.9823 23.0533 40.259 23.8233 39.3257 24.43C38.4157 25.0367 37.2373 25.34 35.7907 25.34ZM36.8057 21.84C38.089 21.84 39.0807 21.42 39.7807 20.58C40.504 19.74 40.959 18.7017 41.1457 17.465H37.3307C36.1407 17.465 35.289 17.6867 34.7757 18.13C34.2623 18.55 34.0057 19.075 34.0057 19.705C34.0057 20.3817 34.2623 20.9067 34.7757 21.28C35.289 21.6533 35.9657 21.84 36.8057 21.84ZM56.4809 25.34C54.9409 25.34 53.5875 25.095 52.4209 24.605C51.2542 24.0917 50.3209 23.3917 49.6209 22.505C48.9209 21.6183 48.5009 20.5917 48.3609 19.425H52.8759C53.0159 20.1017 53.3892 20.685 53.9959 21.175C54.6259 21.6417 55.4309 21.875 56.4109 21.875C57.3909 21.875 58.1025 21.6767 58.5459 21.28C59.0125 20.8833 59.2459 20.4283 59.2459 19.915C59.2459 19.1683 58.9192 18.6667 58.2659 18.41C57.6125 18.13 56.7025 17.8617 55.5359 17.605C54.7892 17.4417 54.0309 17.2433 53.2609 17.01C52.4909 16.7767 51.7792 16.485 51.1259 16.135C50.4959 15.7617 49.9825 15.295 49.5859 14.735C49.1892 14.1517 48.9909 13.44 48.9909 12.6C48.9909 11.06 49.5975 9.765 50.8109 8.715C52.0475 7.665 53.7742 7.14 55.9909 7.14C58.0442 7.14 59.6775 7.61833 60.8909 8.575C62.1275 9.53167 62.8625 10.85 63.0959 12.53H58.8609C58.6042 11.2467 57.6359 10.605 55.9559 10.605C55.1159 10.605 54.4625 10.7683 53.9959 11.095C53.5525 11.4217 53.3309 11.83 53.3309 12.32C53.3309 12.8333 53.6692 13.2417 54.3459 13.545C55.0225 13.8483 55.9209 14.1283 57.0409 14.385C58.2542 14.665 59.3625 14.98 60.3659 15.33C61.3925 15.6567 62.2092 16.1583 62.8159 16.835C63.4225 17.4883 63.7259 18.4333 63.7259 19.67C63.7492 20.7433 63.4692 21.7117 62.8859 22.575C62.3025 23.4383 61.4625 24.115 60.3659 24.605C59.2692 25.095 57.9742 25.34 56.4809 25.34ZM74.1827 24.92C72.3627 24.92 70.9043 24.4767 69.8077 23.59C68.711 22.7033 68.1627 21.1283 68.1627 18.865V11.305H65.1877V7.56H68.1627L68.6877 2.905H72.6427V7.56H77.3327V11.305H72.6427V18.9C72.6427 19.74 72.8177 20.3233 73.1677 20.65C73.541 20.9533 74.171 21.105 75.0577 21.105H77.2277V24.92H74.1827ZM86.4641 25.34C84.9708 25.34 83.7458 25.1067 82.7891 24.64C81.8324 24.15 81.1208 23.5083 80.6541 22.715C80.1874 21.9217 79.9541 21.0467 79.9541 20.09C79.9541 18.48 80.5841 17.1733 81.8441 16.17C83.1041 15.1667 84.9941 14.665 87.5141 14.665H91.9241V14.245C91.9241 13.055 91.5858 12.18 90.9091 11.62C90.2324 11.06 89.3924 10.78 88.3891 10.78C87.4791 10.78 86.6858 11.0017 86.0091 11.445C85.3324 11.865 84.9124 12.495 84.7491 13.335H80.3741C80.4908 12.075 80.9108 10.9783 81.6341 10.045C82.3808 9.11167 83.3374 8.4 84.5041 7.91C85.6708 7.39667 86.9774 7.14 88.4241 7.14C90.8974 7.14 92.8458 7.75833 94.2691 8.995C95.6924 10.2317 96.4041 11.9817 96.4041 14.245V24.92H92.5891L92.1691 22.12C91.6558 23.0533 90.9324 23.8233 89.9991 24.43C89.0891 25.0367 87.9108 25.34 86.4641 25.34ZM87.4791 21.84C88.7624 21.84 89.7541 21.42 90.4541 20.58C91.1774 19.74 91.6324 18.7017 91.8191 17.465H88.0041C86.8141 17.465 85.9624 17.6867 85.4491 18.13C84.9358 18.55 84.6791 19.075 84.6791 19.705C84.6791 20.3817 84.9358 20.9067 85.4491 21.28C85.9624 21.6533 86.6391 21.84 87.4791 21.84ZM103.203 24.92L98.1284 7.56H102.573L105.583 20.055L109.083 7.56H114.053L117.553 20.055L120.598 7.56H125.043L119.933 24.92H115.278L111.568 11.935L107.858 24.92H103.203ZM132.266 25.34C130.773 25.34 129.548 25.1067 128.591 24.64C127.635 24.15 126.923 23.5083 126.456 22.715C125.99 21.9217 125.756 21.0467 125.756 20.09C125.756 18.48 126.386 17.1733 127.646 16.17C128.906 15.1667 130.796 14.665 133.316 14.665H137.726V14.245C137.726 13.055 137.388 12.18 136.711 11.62C136.035 11.06 135.195 10.78 134.191 10.78C133.281 10.78 132.488 11.0017 131.811 11.445C131.135 11.865 130.715 12.495 130.551 13.335H126.176C126.293 12.075 126.713 10.9783 127.436 10.045C128.183 9.11167 129.14 8.4 130.306 7.91C131.473 7.39667 132.78 7.14 134.226 7.14C136.7 7.14 138.648 7.75833 140.071 8.995C141.495 10.2317 142.206 11.9817 142.206 14.245V24.92H138.391L137.971 22.12C137.458 23.0533 136.735 23.8233 135.801 24.43C134.891 25.0367 133.713 25.34 132.266 25.34ZM133.281 21.84C134.565 21.84 135.556 21.42 136.256 20.58C136.98 19.74 137.435 18.7017 137.621 17.465H133.806C132.616 17.465 131.765 17.6867 131.251 18.13C130.738 18.55 130.481 19.075 130.481 19.705C130.481 20.3817 130.738 20.9067 131.251 21.28C131.765 21.6533 132.441 21.84 133.281 21.84ZM147.37 32.62L151.395 23.765H150.345L143.59 7.56H148.455L153.32 19.775L158.395 7.56H163.155L152.13 32.62H147.37Z" fill="white"/>
</g>
<defs>
<filter id="filter0_d_2_7" x="0" y="0" width="167.155" height="40.62" filterUnits="userSpaceOnUse" color-interpolation-filters="sRGB">
<feFlood flood-opacity="0" result="BackgroundImageFix"/>
<feColorMatrix in="SourceAlpha" type="matrix" values="0 0 0 0 0 0 0 0 0 0 0 0 0 0 0 0 0 0 127 0" result="hardAlpha"/>
<feOffset dy="4"/>
<feGaussianBlur stdDeviation="2"/>
<feComposite in2="hardAlpha" operator="out"/>
<feColorMatrix type="matrix" values="0 0 0 0 0 0 0 0 0 0 0 0 0 0 0 0 0 0 0.25 0"/>
<feBlend mode="normal" in2="BackgroundImageFix" result="effect1_dropShadow_2_7"/>
<feBlend mode="normal" in="SourceGraphic" in2="effect1_dropShadow_2_7" result="shape"/>
</filter>
</defs>
</svg>
